<svg id="icons" enable-background="new 0 0 64 64" height="512" viewBox="0 0 64 64" width="512" xmlns="http://www.w3.org/2000/svg"><path d="m32 .99c-12.7 0-23 10.3-23 23 0 8.3 4.41 15.58 11 19.62v3.38h24v-3.38c6.6-4.04 11-11.32 11-19.62 0-12.7-10.29-23-23-23z" fill="#fff"/><path d="m44 46.99v4.04l-24 .92v-4.96z" fill="#d7e9ff"/><path d="m26.8 59.99h10.41c-1.03 1.8-2.98 3.02-5.21 3.02s-4.17-1.22-5.2-3.02z" fill="#94c1ff"/><path d="m44 55.03v2.96l-2 2h-4.79-10.41-4.8l-2-2v-2.04z" fill="#d7e9ff"/><path d="m44 51.03v4l-24 .92v-4z" fill="#d7e9ff"/><path d="m20 15h9l4 3h-12.99l-.01-.09z" fill="#5c9eff"/><path d="m44 18v15.99h-23.99v-15.99h12.99z" fill="#94c1ff"/><g fill="#116fff"><path d="m44 47.991h-24c-.553 0-1-.447-1-1v-2.824c-6.899-4.446-11-11.947-11-20.176 0-13.233 10.767-24 24-24s24 10.767 24 24c0 8.229-4.101 15.729-11 20.176v2.824c0 .553-.447 1-1 1zm-23-2h22v-2.377c0-.348.181-.671.478-.853 6.588-4.037 10.522-11.054 10.522-18.77 0-12.131-9.869-22-22-22s-22 9.869-22 22c0 7.716 3.934 14.732 10.522 18.771.297.181.478.505.478.852z"/><path d="m41.999 60.991h-19.999c-.266 0-.52-.105-.707-.293l-2-2c-.188-.187-.293-.441-.293-.707v-11c0-.553.447-1 1-1h24c.553 0 1 .447 1 1v11c0 .266-.105.52-.293.707l-2.001 2c-.187.188-.442.293-.707.293zm-19.585-2h19.171l1.415-1.414v-9.586h-22v9.586z"/><path d="m18.999 52.991c-.534 0-.978-.423-.998-.962-.021-.552.409-1.017.961-1.037l26-1c.509-.043 1.017.408 1.037.961.021.552-.409 1.017-.961 1.037l-26 1c-.013.001-.025.001-.039.001z"/><path d="m18.999 56.991c-.534 0-.978-.423-.998-.962-.021-.552.409-1.017.961-1.037l26-1c.509-.032 1.017.408 1.037.961.021.552-.409 1.017-.961 1.037l-26 1c-.013.001-.025.001-.039.001z"/><path d="m32 64.009c-2.501 0-4.829-1.349-6.074-3.52-.275-.479-.109-1.091.369-1.365.48-.274 1.091-.109 1.365.369.891 1.552 2.553 2.516 4.34 2.516s3.449-.964 4.34-2.516c.273-.479.885-.645 1.365-.369.479.274.645.886.369 1.365-1.245 2.171-3.573 3.52-6.074 3.52z"/><path d="m43.998 34.993h-23.992c-.553 0-1-.447-1-1v-15.992c0-.552.447-1 1-1h23.992c.553 0 1 .448 1 1v15.992c0 .553-.447 1-1 1zm-22.992-2h21.992v-13.992h-21.992z"/><path d="m20.001 18.916c-.553 0-1-.448-1-1v-2.916c0-.552.447-1 1-1s1 .448 1 1v2.916c0 .552-.447 1-1 1z"/><path d="m28.999 16h-8.998c-.553 0-1-.448-1-1s.447-1 1-1h8.998c.553 0 1 .448 1 1s-.447 1-1 1z"/><path d="m32.998 19.001c-.209 0-.419-.065-.6-.2l-4-3.001c-.441-.332-.53-.958-.199-1.4.331-.441.958-.531 1.4-.2l4 3.001c.441.332.53.958.199 1.4-.195.262-.496.4-.8.4z"/></g></svg>